<?xml version="1.0" encoding="utf-8"?>
<!-- Generator: Adobe Illustrator 28.3.0, SVG Export Plug-In . SVG Version: 6.00 Build 0)  -->
<svg version="1.2" baseProfile="tiny" id="Layer_1" xmlns="http://www.w3.org/2000/svg" xmlns:xlink="http://www.w3.org/1999/xlink"
	 x="0px" y="0px" viewBox="0 0 269.2 269.2" overflow="visible" xml:space="preserve">
<g>
	<path d="M44.9,261.3L44.9,261.3c6.1,0,10.9-5.4,10.1-11.4c-4.2-34.2-16.4-133.2-16.4-133.2c-2.9-23.4,3.5-45.3,17.9-61.6
		c14.3-16.1,34.9-25,58-25c49.2,0,94.2,40.1,100.2,89.3c0,0,11.8,96.1,16,130.2c0.8,6.7,6.5,11.8,13.3,11.8h0c5.5,0,9.7-4.8,9-10.2
		c-4-32.9-16.5-134.5-16.5-134.5c-3.6-29.1-18.2-56.4-41.2-76.9c-23-20.5-51.7-31.8-80.9-31.8c-29.5,0-55.9,11.5-74.4,32.4
		c-18.7,21.1-27,49.1-23.3,78.9L33,250.7C33.7,256.7,38.8,261.3,44.9,261.3z"/>
	<path d="M102.8,48.9L102.8,48.9c4.6,3.6,5.4,10.3,1.7,14.9L71.2,106c-3.6,4.6-10.3,5.4-14.9,1.7l0,0c-4.6-3.6-5.4-10.3-1.7-14.9
		l33.4-42.2C91.5,46.1,98.2,45.3,102.8,48.9z"/>
	<path d="M213.7,196L213.7,196c4.6,3.6,5.4,10.3,1.7,14.9l-33.4,42.2c-3.6,4.6-10.3,5.4-14.9,1.7h0c-4.6-3.6-5.4-10.3-1.7-14.9
		l33.4-42.2C202.4,193.2,209.1,192.4,213.7,196z"/>
	<path d="M162.4,137.7l-50.3-21.4c-6.5-2.8-13.6,2.5-12.8,9.6l6.6,54.2c0.9,7.1,9,10.5,14.7,6.3l43.7-32.8
		C170,149.3,169,140.5,162.4,137.7z"/>
</g>
</svg>
